<svg width="28" height="28" viewBox="0 0 28 28" fill="none" xmlns="http://www.w3.org/2000/svg">
<rect width="28" height="28" fill="#E5E5E5"/>
<g clip-path="url(#clip0)">
<rect width="1440" height="5083" transform="translate(-1225 -40)" fill="white"/>
<g filter="url(#filter0_dd)">
<rect x="-1225" y="-40" width="1440" height="196" fill="#000084"/>
</g>
<path fill-rule="evenodd" clip-rule="evenodd" d="M7.625 1.25H20.3807C23.8982 1.25 26.75 4.10175 26.75 7.61933V20.3821C26.75 23.8982 23.8982 26.75 20.3807 26.75H7.61933C4.10175 26.75 1.25 23.8982 1.25 20.3807V7.625C1.25 4.10458 4.10458 1.25 7.625 1.25V1.25Z" stroke="white" stroke-width="1.5" stroke-linecap="round" stroke-linejoin="round"/>
<path d="M12.725 15.275H20.375" stroke="white" stroke-width="1.5" stroke-linecap="round" stroke-linejoin="round"/>
<path d="M20.375 8.9H19.0363C16.9594 8.9 15.275 10.5844 15.275 12.6613V14V26.75" stroke="white" stroke-width="1.5" stroke-linecap="round" stroke-linejoin="round"/>
</g>
<defs>
<filter id="filter0_dd" x="-1245" y="-50" width="1480" height="236" filterUnits="userSpaceOnUse" color-interpolation-filters="sRGB">
<feFlood flood-opacity="0" result="BackgroundImageFix"/>
<feColorMatrix in="SourceAlpha" type="matrix" values="0 0 0 0 0 0 0 0 0 0 0 0 0 0 0 0 0 0 127 0"/>
<feOffset dy="10"/>
<feGaussianBlur stdDeviation="10"/>
<feColorMatrix type="matrix" values="0 0 0 0 0 0 0 0 0 0 0 0 0 0 0.517647 0 0 0 0.1 0"/>
<feBlend mode="normal" in2="BackgroundImageFix" result="effect1_dropShadow"/>
<feColorMatrix in="SourceAlpha" type="matrix" values="0 0 0 0 0 0 0 0 0 0 0 0 0 0 0 0 0 0 127 0"/>
<feOffset dy="1"/>
<feGaussianBlur stdDeviation="1.5"/>
<feColorMatrix type="matrix" values="0 0 0 0 0 0 0 0 0 0 0 0 0 0 0.517647 0 0 0 0.03 0"/>
<feBlend mode="normal" in2="effect1_dropShadow" result="effect2_dropShadow"/>
<feBlend mode="normal" in="SourceGraphic" in2="effect2_dropShadow" result="shape"/>
</filter>
<clipPath id="clip0">
<rect width="1440" height="5083" fill="white" transform="translate(-1225 -40)"/>
</clipPath>
</defs>
</svg>
