<svg width="248" height="50" viewBox="0 0 248 50" fill="none" xmlns="http://www.w3.org/2000/svg">
<path d="M79.5757 41.2561L74.5342 41.1248C72.351 41.1248 70.4407 41.2415 68.8033 41.4749C68.6309 41.2415 68.5447 40.9936 68.5447 40.731L68.6309 40.381C69.7513 40.1184 70.5269 39.8267 70.9578 39.5058C71.4174 39.1557 71.6472 38.7765 71.6472 38.3681C71.6472 37.9597 71.4461 37.1429 71.0439 35.9176L68.5017 29.3539C66.9504 29.2664 65.0976 29.2227 62.9431 29.2227L56.7813 29.3539L55.7041 32.1544C54.2678 35.7718 53.5496 38.3389 53.5496 39.8559C54.2103 39.885 55.2157 39.8996 56.5659 39.8996C56.6233 40.1038 56.652 40.3372 56.652 40.5997C56.652 40.8623 56.6233 41.0811 56.5659 41.2561L51.9984 41.1248C50.1886 41.1248 48.6087 41.2415 47.2585 41.4749C47.0862 41.2707 47 41.0227 47 40.731L47.0862 40.381C48.5512 39.9725 49.6141 39.3308 50.2748 38.4556C50.9642 37.5804 51.984 35.5967 53.3342 32.5045L63.9773 8H64.6667L74.5773 33.7297C74.7496 34.284 75.1949 35.3634 75.913 36.9678C76.6599 38.5431 77.1339 39.4766 77.335 39.7683C78.1393 39.8559 78.8862 39.8996 79.5757 39.8996C79.6618 40.1038 79.7049 40.3372 79.7049 40.5997C79.7049 40.8623 79.6618 41.0811 79.5757 41.2561ZM57.4277 27.6474L62.9431 27.8224C64.9252 27.8224 66.5914 27.7786 67.9415 27.6911L62.9431 14.3012L57.4277 27.6474Z" fill="white"/>
<path d="M93.1088 41.2561L87.3779 41.1248C84.534 41.1248 82.2646 41.2415 80.5697 41.4749C80.4261 41.2999 80.3543 41.0519 80.3543 40.731L80.3974 40.381C82.121 39.9725 83.2269 39.5204 83.7153 39.0245C84.2323 38.5285 84.5627 37.7117 84.7063 36.574C85.051 33.2192 85.2234 29.6019 85.2234 25.722V20.6461C85.2234 14.2574 84.9792 11.0339 84.4909 10.9755C83.8302 10.888 82.8391 10.8443 81.5177 10.8443C81.4315 10.6401 81.3884 10.4067 81.3884 10.1441C81.3884 9.8816 81.4315 9.66281 81.5177 9.48777L86.3437 9.61905C89.0153 9.61905 91.0405 9.50236 92.4193 9.26898C92.5343 9.41484 92.5917 9.77949 92.5917 10.3629C91.5863 10.5088 90.8681 10.8734 90.4372 11.4569C90.0351 12.0112 89.7334 12.7259 89.5324 13.601C89.2451 15.118 89.1015 18.5311 89.1015 23.8404V31.8919C89.1015 35.2467 89.1876 37.843 89.36 39.6808C90.1356 39.8267 91.3852 39.8996 93.1088 39.8996C93.195 40.1038 93.2381 40.3372 93.2381 40.5997L93.1088 41.2561ZM110.043 39.7683C110.129 39.9434 110.172 40.1913 110.172 40.5122C110.172 40.8331 110.158 41.0373 110.129 41.1248C108.233 41.2124 106.639 41.3728 105.346 41.6062C104.082 41.8687 103.378 42 103.235 42C102.344 42 99.2562 37.7117 93.9706 29.1351C91.8736 25.7512 90.7101 23.8988 90.4803 23.5779L96.082 18.1956C98.6961 15.716 100.506 13.426 101.511 11.3256C100.994 11.0339 99.8738 10.8589 98.1503 10.8005C98.1215 10.6838 98.1072 10.5234 98.1072 10.3192L98.2795 9.44402C101.181 9.5607 102.933 9.61905 103.536 9.61905C104.168 9.61905 105.346 9.54612 107.07 9.40026C107.3 9.60446 107.414 9.96911 107.414 10.4942C105.691 11.5736 104.197 12.6821 102.933 13.8198L94.1429 21.6963C99.5722 30.477 103.077 35.8009 104.657 37.668C105.72 38.9223 106.639 39.5933 107.414 39.6808C107.903 39.7392 108.779 39.7683 110.043 39.7683Z" fill="white"/>
<path d="M129.909 12.2445C127.984 10.9901 126.131 10.3629 124.35 10.3629C122.569 10.3629 121.133 10.8589 120.041 11.8507C118.949 12.8426 118.404 14.097 118.404 15.6139C118.404 17.1017 118.993 18.3998 120.17 19.5084C121.348 20.6169 123.244 21.813 125.858 23.0965C130.052 25.1677 132.709 27.3848 133.83 29.7477C134.347 30.8563 134.605 32.0378 134.605 33.2922C134.605 36.0051 133.471 38.1347 131.201 39.6808C128.961 41.2269 126.318 42 123.273 42C121.635 42 119.926 41.8396 118.145 41.5187C116.364 41.1978 115.086 40.8769 114.31 40.556C114.023 38.2806 113.535 35.6843 112.845 32.7671C113.362 32.5045 113.75 32.3732 114.009 32.3732C114.296 32.3732 114.511 32.3878 114.655 32.417C115.459 34.459 116.206 36.0051 116.896 37.0553C117.499 37.6971 118.03 38.2222 118.49 38.6306C118.949 39.0099 119.696 39.4037 120.73 39.8121C121.793 40.2205 123.072 40.4247 124.565 40.4247C126.059 40.4247 127.409 39.8996 128.616 38.8494C129.822 37.7992 130.426 36.4573 130.426 34.8237C130.426 33.5109 130.196 32.5628 129.736 31.9794C129.277 31.396 128.932 30.9584 128.702 30.6667C128.501 30.3749 128.099 30.0395 127.496 29.6602C126.892 29.2518 126.476 28.9747 126.246 28.8288C126.016 28.683 125.513 28.4058 124.738 27.9974C123.991 27.589 123.316 27.2244 122.713 26.9035C122.138 26.5534 121.65 26.2617 121.248 26.0283C120.845 25.7949 120.228 25.4303 119.395 24.9344C118.562 24.4093 117.973 24.0009 117.628 23.7091C117.283 23.3882 116.838 22.9653 116.292 22.4402C115.746 21.9151 115.359 21.4337 115.129 20.9961C114.554 19.7417 114.267 18.5603 114.267 17.4517C114.267 14.7679 115.373 12.6821 117.585 11.1943C119.797 9.67739 122.468 8.91892 125.6 8.91892C126.892 8.91892 128.329 9.09395 129.909 9.44402C131.489 9.79408 132.709 10.1587 133.571 10.538C133.313 11.559 133.068 13.6885 132.839 16.9266C132.551 17.0725 132.25 17.1454 131.934 17.1454C131.618 17.1454 131.345 17.0871 131.115 16.9704C131.086 16.6203 130.914 15.8327 130.598 14.6075C130.282 13.3531 130.052 12.5654 129.909 12.2445Z" fill="white"/>
<path d="M164.194 25.722L156.136 25.5032C153.723 25.5032 150.649 25.5761 146.915 25.722V33.7735C146.915 37.7409 147.087 39.7392 147.432 39.7683C147.949 39.8559 148.926 39.8996 150.362 39.8996C150.419 40.1038 150.448 40.3372 150.448 40.5997C150.448 40.8623 150.419 41.0811 150.362 41.2561L146.096 41.1248C143.31 41.1248 141.011 41.2415 139.202 41.4749C139.058 41.2999 138.986 41.0519 138.986 40.731L139.029 40.381C140.523 40.0309 141.5 39.4912 141.959 38.7619C142.333 38.1785 142.577 37.4492 142.692 36.574C143.037 33.9193 143.209 29.8207 143.209 24.278V16.9704C143.209 13.003 143.037 11.0047 142.692 10.9755C142.175 10.888 141.198 10.8443 139.762 10.8443C139.704 10.6401 139.676 10.4067 139.676 10.1441C139.676 9.8816 139.704 9.66281 139.762 9.48777C139.762 9.48777 141.241 9.53153 144.2 9.61905C146.872 9.61905 148.926 9.50236 150.362 9.26898C150.477 9.50236 150.534 9.86701 150.534 10.3629C149.701 10.5671 149.055 10.9026 148.595 11.3694C148.136 11.8069 147.848 12.2154 147.733 12.5946C147.303 13.9949 147.03 17.7289 146.915 23.7967C149.787 23.9133 152.861 23.9717 156.136 23.9717L164.194 23.7967V16.9704C164.194 13.003 164.021 11.0047 163.677 10.9755C163.131 10.888 162.154 10.8443 160.746 10.8443C160.66 10.6401 160.617 10.4067 160.617 10.1441C160.617 9.8816 160.66 9.66281 160.746 9.48777L165.185 9.61905C167.856 9.61905 169.896 9.50236 171.303 9.26898C171.418 9.53153 171.476 9.89618 171.476 10.3629C170.643 10.5963 169.996 10.9318 169.537 11.3694C169.077 11.8069 168.776 12.2299 168.632 12.6384C168.517 13.0176 168.431 13.5281 168.373 14.1699C168.029 17.2621 167.856 20.7044 167.856 24.4968V33.7735C167.856 37.7409 168.029 39.7392 168.373 39.7683C168.919 39.8559 169.982 39.8996 171.562 39.8996C171.619 40.1038 171.648 40.3372 171.648 40.5997C171.648 40.8623 171.619 41.0811 171.562 41.2561L167.081 41.1248C164.007 41.1248 161.508 41.2415 159.583 41.4749C159.439 41.2999 159.368 41.0519 159.368 40.731L159.411 40.381C161.134 39.9725 162.24 39.5204 162.729 39.0245C163.246 38.5285 163.562 37.7117 163.677 36.574C163.993 33.5985 164.165 29.9811 164.194 25.722Z" fill="white"/>
<path d="M205.899 41.2561L200.857 41.1248C198.674 41.1248 196.764 41.2415 195.126 41.4749C194.954 41.2415 194.868 40.9936 194.868 40.731L194.954 40.381C196.074 40.1184 196.85 39.8267 197.281 39.5058C197.74 39.1557 197.97 38.7765 197.97 38.3681C197.97 37.9597 197.769 37.1429 197.367 35.9176L194.825 29.3539C193.273 29.2664 191.42 29.2227 189.266 29.2227L183.104 29.3539L182.027 32.1544C180.591 35.7718 179.873 38.3389 179.873 39.8559C180.533 39.885 181.539 39.8996 182.889 39.8996C182.946 40.1038 182.975 40.3372 182.975 40.5997C182.975 40.8623 182.946 41.0811 182.889 41.2561L178.321 41.1248C176.512 41.1248 174.932 41.2415 173.581 41.4749C173.409 41.2707 173.323 41.0227 173.323 40.731L173.409 40.381C174.874 39.9725 175.937 39.3308 176.598 38.4556C177.287 37.5804 178.307 35.5967 179.657 32.5045L190.3 8H190.99L200.9 33.7297C201.073 34.284 201.518 35.3634 202.236 36.9678C202.983 38.5431 203.457 39.4766 203.658 39.7683C204.462 39.8559 205.209 39.8996 205.899 39.8996C205.985 40.1038 206.028 40.3372 206.028 40.5997C206.028 40.8623 205.985 41.0811 205.899 41.2561ZM183.751 27.6474L189.266 27.8224C191.248 27.8224 192.914 27.7786 194.264 27.6911L189.266 14.3012L183.751 27.6474Z" fill="white"/>
<path d="M247.871 41.2561L243.389 41.1248C240.287 41.1248 237.773 41.2415 235.849 41.4749C235.705 41.2999 235.633 41.0519 235.633 40.731L235.676 40.381C237.4 39.9725 238.492 39.535 238.951 39.0682C239.411 38.6015 239.684 37.6096 239.77 36.0927C239.856 34.5757 239.899 33.0004 239.899 31.3668C239.899 29.704 239.813 27.1806 239.641 23.7967L239.296 16.6203C237.975 19.1 235.906 23.3153 233.091 29.2664C230.305 35.2175 228.495 39.462 227.662 42H226.455C220.854 29.1351 217.263 21.3024 215.683 18.5019L213.873 15.3514C213.758 18.9687 213.701 23.3882 213.701 28.61C213.701 33.8027 213.873 37.5221 214.218 39.7683C214.85 39.8559 215.97 39.8996 217.579 39.8996C217.665 40.133 217.708 40.3955 217.708 40.6873C217.708 40.9498 217.665 41.1394 217.579 41.2561L212.71 41.1248C210.728 41.1248 209.061 41.2415 207.711 41.4749C207.568 41.2999 207.496 41.0519 207.496 40.731L207.539 40.381C208.947 40.0601 209.88 39.5933 210.34 38.9807C210.828 38.3681 211.144 37.5659 211.288 36.574C211.977 31.5856 212.379 23.7237 212.494 12.9884C211.719 11.9966 210.871 11.2964 209.952 10.888C209.837 10.8589 209.033 10.7422 207.539 10.538L207.41 9.92535C207.41 9.63363 207.453 9.40026 207.539 9.22522L214.433 9.05019C214.864 9.05019 215.597 9.82325 216.631 11.3694C217.694 12.9155 218.742 14.6366 219.776 16.5328C220.811 18.3998 222.003 20.8357 223.353 23.8404C224.732 26.8451 225.881 29.4414 226.8 31.6293C227.719 33.8172 228.236 35.0133 228.351 35.2175C228.725 34.3715 230.491 30.5646 233.651 23.7967C236.811 16.9996 238.894 12.2737 239.899 9.61905C242.801 9.61905 245.113 9.48777 246.837 9.22522C246.98 9.48777 247.052 9.85242 247.052 10.3192C245.616 10.6401 244.653 11.1214 244.165 11.7632C243.677 12.405 243.404 13.0905 243.346 13.8198C243.289 14.5491 243.26 15.9202 243.26 17.9331C243.26 19.9459 243.346 23.3591 243.519 28.1725C243.72 32.9858 244.021 36.8511 244.424 39.7683C244.969 39.8559 246.118 39.8996 247.871 39.8996C247.957 40.1038 248 40.3372 248 40.5997C248 40.8623 247.957 41.0811 247.871 41.2561Z" fill="white"/>
<path d="M50 25C50 38.8071 38.8071 50 25 50C11.1929 50 0 38.8071 0 25C0 11.1929 11.1929 0 25 0C38.8071 0 50 11.1929 50 25Z" fill="white"/>
<path d="M34.7327 36.6639C34.4211 36.3395 34.0056 35.4924 33.4863 34.1227L33.4791 34.1025C33.2166 33.2807 32.954 32.4588 32.6915 31.637C32.0828 29.7328 31.474 27.8286 30.8667 25.926C30.5969 25.0824 30.3272 24.2387 30.0574 23.3933C33.4993 23.0874 36.1334 23.9714 36.1334 23.9714L35.4034 21.0202L35.0096 20.9849C32.8834 20.7966 31.0124 20.9059 29.3665 21.2269C29.1818 20.6487 28.9972 20.0723 28.8125 19.4941C28.3206 17.9546 27.8302 16.4151 27.3368 14.8773C27.2416 14.5798 27.1104 14.2857 27.0801 13.9647C27.0469 13.6101 27.1608 13.1782 27.4609 13.0235C27.7263 12.8874 28.1345 12.6992 28.3192 12.6773V12H16V13.0118C16.7342 13.1294 18.7466 13.4571 19.2659 13.6756C19.9597 13.9445 20.8858 14.3546 21.1556 15.2134C21.434 16.0975 21.7153 16.9815 21.998 17.8656C22.3356 18.9227 22.6746 19.9815 23.0121 21.0387C23.2761 21.8656 23.5415 22.6924 23.8055 23.521C19.0149 26.8303 17.8666 32.0857 17.8666 32.0857C19.6741 28.5647 21.9677 26.4034 24.3133 25.1076C24.6696 26.2202 25.0245 27.3328 25.3808 28.4471C25.7299 29.5395 26.0789 30.6319 26.428 31.7244C26.679 32.5092 26.93 33.2941 27.181 34.079C27.282 34.3966 27.3844 34.716 27.4869 35.0353C27.5893 35.484 27.6398 35.7983 27.6398 35.9748C27.6398 36.5059 27.5071 36.8403 27.2431 36.9765C26.9776 37.1126 26.6516 37.3008 26.467 37.3227V38H38V37.3227C37.2658 37.2101 35.0443 36.9882 34.7327 36.6639Z" fill="#000084"/>
<path d="M15.7833 35.7304C15.7833 35.4232 15.9282 34.7433 16.0758 34.2179L20 16.4269C19.9759 16.3463 19.9517 16.2641 19.9276 16.1835C19.7652 15.6295 19.348 15.2636 18.8999 15C17.3933 21.4899 14.2123 35.2788 13.8876 36.0611C13.6072 36.7359 12.7486 37.2194 12 37.3235V38H17.7702V37.3235C17.0887 37.253 16.6259 37.1472 16.379 37.0045C15.9819 36.7695 15.7833 36.3448 15.7833 35.7304Z" fill="#000084"/>
</svg>
