<svg width="28" height="28" viewBox="0 0 28 28" fill="none" xmlns="http://www.w3.org/2000/svg">
<rect width="28" height="28" fill="#E5E5E5"/>
<g clip-path="url(#clip0)">
<rect width="1440" height="5083" transform="translate(-1274 -40)" fill="white"/>
<g filter="url(#filter0_dd)">
<rect x="-1274" y="-40" width="1440" height="196" fill="#000084"/>
</g>
<path fill-rule="evenodd" clip-rule="evenodd" d="M7.61933 1.25H20.3821C23.8982 1.25 26.75 4.10033 26.75 7.61933V20.3821C26.75 23.8982 23.8997 26.75 20.3807 26.75H7.61933C4.10175 26.75 1.25 23.8997 1.25 20.3807V7.61933C1.25 4.10175 4.10033 1.25 7.61933 1.25V1.25Z" stroke="#9F9F9F" stroke-width="1.5" stroke-linecap="round" stroke-linejoin="round"/>
<path fill-rule="evenodd" clip-rule="evenodd" d="M7.61933 1.25H20.3821C23.8982 1.25 26.75 4.10033 26.75 7.61933V20.3821C26.75 23.8982 23.8997 26.75 20.3807 26.75H7.61933C4.10175 26.75 1.25 23.8997 1.25 20.3807V7.61933C1.25 4.10175 4.10033 1.25 7.61933 1.25V1.25Z" stroke="url(#paint0_linear)" stroke-width="1.5" stroke-linecap="round" stroke-linejoin="round"/>
<path d="M21.0111 6.51001C20.7476 6.51143 20.5337 6.72535 20.5337 6.98885C20.5337 7.25235 20.749 7.46626 21.0125 7.46626C21.276 7.46626 21.4899 7.25235 21.4899 6.98885C21.4914 6.72393 21.276 6.51001 21.0111 6.51001Z" stroke="#9F9F9F" stroke-width="1.5" stroke-linecap="round" stroke-linejoin="round"/>
<path d="M21.0111 6.51001C20.7476 6.51143 20.5337 6.72535 20.5337 6.98885C20.5337 7.25235 20.749 7.46626 21.0125 7.46626C21.276 7.46626 21.4899 7.25235 21.4899 6.98885C21.4914 6.72393 21.276 6.51001 21.0111 6.51001Z" stroke="url(#paint1_linear)" stroke-width="1.5" stroke-linecap="round" stroke-linejoin="round"/>
<path d="M17.6063 10.3937C19.598 12.3854 19.598 15.6145 17.6063 17.6062C15.6146 19.5979 12.3855 19.5979 10.3938 17.6062C8.4021 15.6145 8.4021 12.3854 10.3938 10.3937C12.3855 8.40205 15.6146 8.40205 17.6063 10.3937" stroke="#9F9F9F" stroke-width="1.5" stroke-linecap="round" stroke-linejoin="round"/>
<path d="M17.6063 10.3937C19.598 12.3854 19.598 15.6145 17.6063 17.6062C15.6146 19.5979 12.3855 19.5979 10.3938 17.6062C8.4021 15.6145 8.4021 12.3854 10.3938 10.3937C12.3855 8.40205 15.6146 8.40205 17.6063 10.3937" stroke="url(#paint2_linear)" stroke-width="1.5" stroke-linecap="round" stroke-linejoin="round"/>
</g>
<defs>
<filter id="filter0_dd" x="-1294" y="-50" width="1480" height="236" filterUnits="userSpaceOnUse" color-interpolation-filters="sRGB">
<feFlood flood-opacity="0" result="BackgroundImageFix"/>
<feColorMatrix in="SourceAlpha" type="matrix" values="0 0 0 0 0 0 0 0 0 0 0 0 0 0 0 0 0 0 127 0"/>
<feOffset dy="10"/>
<feGaussianBlur stdDeviation="10"/>
<feColorMatrix type="matrix" values="0 0 0 0 0 0 0 0 0 0 0 0 0 0 0.517647 0 0 0 0.1 0"/>
<feBlend mode="normal" in2="BackgroundImageFix" result="effect1_dropShadow"/>
<feColorMatrix in="SourceAlpha" type="matrix" values="0 0 0 0 0 0 0 0 0 0 0 0 0 0 0 0 0 0 127 0"/>
<feOffset dy="1"/>
<feGaussianBlur stdDeviation="1.5"/>
<feColorMatrix type="matrix" values="0 0 0 0 0 0 0 0 0 0 0 0 0 0 0.517647 0 0 0 0.03 0"/>
<feBlend mode="normal" in2="effect1_dropShadow" result="effect2_dropShadow"/>
<feBlend mode="normal" in="SourceGraphic" in2="effect2_dropShadow" result="shape"/>
</filter>
<linearGradient id="paint0_linear" x1="14" y1="1.25" x2="14" y2="26.75" gradientUnits="userSpaceOnUse">
<stop stop-color="white"/>
<stop offset="1" stop-color="white"/>
</linearGradient>
<linearGradient id="paint1_linear" x1="21.0118" y1="6.51001" x2="21.0118" y2="7.46626" gradientUnits="userSpaceOnUse">
<stop stop-color="white"/>
<stop offset="1" stop-color="white"/>
</linearGradient>
<linearGradient id="paint2_linear" x1="14" y1="8.89997" x2="14" y2="19.1" gradientUnits="userSpaceOnUse">
<stop stop-color="white"/>
<stop offset="1" stop-color="white"/>
</linearGradient>
<clipPath id="clip0">
<rect width="1440" height="5083" fill="white" transform="translate(-1274 -40)"/>
</clipPath>
</defs>
</svg>
