<svg width="172" height="36" viewBox="0 0 172 36" fill="none" xmlns="http://www.w3.org/2000/svg">
<path d="M57.7725 28.8926L54.3533 28.803C52.8726 28.803 51.577 28.8826 50.4665 29.0419C50.3496 28.8826 50.2912 28.7134 50.2912 28.5343L50.3496 28.2954C51.1094 28.1163 51.6355 27.9172 51.9277 27.6983C52.2394 27.4594 52.3953 27.2006 52.3953 26.9219C52.3953 26.6433 52.2589 26.0859 51.9861 25.2499L50.2619 20.7711C49.2099 20.7114 47.9533 20.6815 46.4921 20.6815L42.3131 20.7711L41.5825 22.682C40.6083 25.1503 40.1213 26.902 40.1213 27.9371C40.5694 27.957 41.2513 27.967 42.1669 27.967C42.2059 28.1063 42.2254 28.2656 42.2254 28.4447C42.2254 28.6239 42.2059 28.7732 42.1669 28.8926L39.0692 28.803C37.8418 28.803 36.7703 28.8826 35.8546 29.0419C35.7377 28.9026 35.6792 28.7334 35.6792 28.5343L35.7377 28.2954C36.7313 28.0168 37.4522 27.5788 37.9003 26.9817C38.3678 26.3845 39.0595 25.0309 39.9751 22.9209L47.1934 6.2002H47.661L54.3825 23.757C54.4994 24.1352 54.8014 24.8717 55.2884 25.9665C55.795 27.0414 56.1165 27.6784 56.2528 27.8774C56.7983 27.9371 57.3049 27.967 57.7725 27.967C57.8309 28.1063 57.8601 28.2656 57.8601 28.4447C57.8601 28.6239 57.8309 28.7732 57.7725 28.8926ZM42.7514 19.6066L46.4921 19.7261C47.8364 19.7261 48.9664 19.6962 49.882 19.6365L46.4921 10.4998L42.7514 19.6066Z" fill="white"/>
<path d="M66.9508 28.8926L63.064 28.803C61.1353 28.803 59.5961 28.8826 58.4467 29.0419C58.3493 28.9225 58.3006 28.7533 58.3006 28.5343L58.3298 28.2954C59.4987 28.0168 60.2488 27.7082 60.58 27.3698C60.9307 27.0314 61.1547 26.4741 61.2522 25.6977C61.4859 23.4086 61.6028 20.9403 61.6028 18.2929V14.8293C61.6028 10.4699 61.4372 8.27038 61.106 8.23057C60.6579 8.17085 59.9858 8.14099 59.0896 8.14099C59.0311 8.00165 59.0019 7.84241 59.0019 7.66326C59.0019 7.48411 59.0311 7.33482 59.0896 7.21538L62.3627 7.30496C64.1745 7.30496 65.5481 7.22533 66.4832 7.06609C66.5612 7.16562 66.6001 7.41444 66.6001 7.81255C65.9182 7.91208 65.4312 8.1609 65.1389 8.55901C64.8662 8.93722 64.6616 9.42491 64.5252 10.0221C64.3304 11.0572 64.233 13.3861 64.233 17.0089V22.5029C64.233 24.792 64.2914 26.5636 64.4083 27.8177C64.9344 27.9172 65.7819 27.967 66.9508 27.967C67.0093 28.1063 67.0385 28.2656 67.0385 28.4447L66.9508 28.8926ZM78.4358 27.8774C78.4942 27.9968 78.5234 28.166 78.5234 28.385C78.5234 28.604 78.5137 28.7433 78.4942 28.803C77.2084 28.8627 76.1271 28.9722 75.2504 29.1315C74.3931 29.3106 73.9158 29.4002 73.8184 29.4002C73.2145 29.4002 71.1201 26.4741 67.5353 20.6218C66.1131 18.3128 65.324 17.0488 65.1682 16.8298L68.9673 13.1572C70.7402 11.4652 71.9676 9.90264 72.6495 8.46943C72.2988 8.27038 71.5389 8.15095 70.37 8.11113C70.3505 8.03151 70.3408 7.92203 70.3408 7.78269L70.4577 7.18552C72.4254 7.26515 73.6138 7.30496 74.023 7.30496C74.4516 7.30496 75.2504 7.25519 76.4193 7.15567C76.5752 7.295 76.6531 7.54382 76.6531 7.90212C75.4842 8.63863 74.4711 9.39505 73.6138 10.1714L67.6522 15.5459C71.3344 21.5375 73.7113 25.1702 74.7828 26.4442C75.5037 27.3001 76.1271 27.758 76.6531 27.8177C76.9843 27.8575 77.5785 27.8774 78.4358 27.8774Z" fill="white"/>
<path d="M91.9089 9.09646C90.6035 8.24052 89.3469 7.81255 88.139 7.81255C86.9311 7.81255 85.957 8.15095 85.2166 8.82774C84.4763 9.50453 84.1061 10.3605 84.1061 11.3956C84.1061 12.4107 84.5055 13.2965 85.3043 14.053C86.1031 14.8094 87.3889 15.6255 89.1618 16.5014C92.0063 17.9147 93.8084 19.4275 94.5682 21.0398C94.9189 21.7962 95.0943 22.6024 95.0943 23.4584C95.0943 25.3096 94.3247 26.7627 92.7856 27.8177C91.266 28.8727 89.4736 29.4002 87.4084 29.4002C86.2979 29.4002 85.1387 29.2907 83.9308 29.0718C82.7229 28.8528 81.8559 28.6338 81.3298 28.4149C81.135 26.8622 80.8038 25.0906 80.3362 23.1001C80.6869 22.9209 80.9499 22.8313 81.1253 22.8313C81.3201 22.8313 81.4662 22.8413 81.5636 22.8612C82.1091 24.2546 82.6157 25.3096 83.0833 26.0262C83.4924 26.4641 83.8528 26.8224 84.1646 27.1011C84.4763 27.3599 84.9828 27.6286 85.6842 27.9073C86.4051 28.186 87.272 28.3253 88.2851 28.3253C89.2982 28.3253 90.2139 27.967 91.0322 27.2504C91.8504 26.5338 92.2596 25.6181 92.2596 24.5034C92.2596 23.6077 92.1037 22.9607 91.792 22.5626C91.4803 22.1645 91.2465 21.8659 91.0906 21.6669C90.9542 21.4678 90.6815 21.2389 90.2723 20.9801C89.8632 20.7014 89.5807 20.5123 89.4249 20.4128C89.269 20.3133 88.928 20.1242 88.402 19.8455C87.8955 19.5668 87.4376 19.318 87.0285 19.099C86.6388 18.8602 86.3076 18.6611 86.0349 18.5019C85.7621 18.3426 85.3433 18.0938 84.7783 17.7554C84.2133 17.3971 83.8139 17.1184 83.5801 16.9194C83.3463 16.7004 83.0443 16.4118 82.6741 16.0535C82.304 15.6952 82.041 15.3667 81.8851 15.0681C81.4954 14.2122 81.3006 13.406 81.3006 12.6496C81.3006 10.8183 82.0507 9.39505 83.5509 8.37986C85.051 7.34477 86.8629 6.82722 88.9865 6.82722C89.8632 6.82722 90.8373 6.94666 91.9089 7.18552C92.9804 7.42439 93.8084 7.67321 94.3929 7.93198C94.2176 8.62868 94.052 10.0818 93.8961 12.2913C93.7013 12.3908 93.4967 12.4406 93.2824 12.4406C93.0681 12.4406 92.883 12.4008 92.7271 12.3212C92.7077 12.0823 92.5908 11.5449 92.3765 10.7088C92.1622 9.85288 92.0063 9.31542 91.9089 9.09646Z" fill="white"/>
<path d="M115.161 18.2929L109.697 18.1436C108.06 18.1436 105.975 18.1933 103.443 18.2929V23.7868C103.443 26.494 103.56 27.8575 103.793 27.8774C104.144 27.9371 104.806 27.967 105.781 27.967C105.82 28.1063 105.839 28.2656 105.839 28.4447C105.839 28.6239 105.82 28.7732 105.781 28.8926L102.887 28.803C100.998 28.803 99.439 28.8826 98.2116 29.0419C98.1142 28.9225 98.0655 28.7533 98.0655 28.5343L98.0947 28.2954C99.1078 28.0566 99.7702 27.6883 100.082 27.1907C100.335 26.7926 100.501 26.2949 100.579 25.6977C100.813 23.8863 100.929 21.0896 100.929 17.3075V12.3212C100.929 9.61401 100.813 8.25047 100.579 8.23057C100.228 8.17085 99.5657 8.14099 98.5915 8.14099C98.5526 8.00165 98.5331 7.84241 98.5331 7.66326C98.5331 7.48411 98.5526 7.33482 98.5915 7.21538C98.5915 7.21538 99.5949 7.24524 101.602 7.30496C103.413 7.30496 104.806 7.22533 105.781 7.06609C105.859 7.22533 105.898 7.47415 105.898 7.81255C105.333 7.95189 104.894 8.1808 104.582 8.49929C104.271 8.79788 104.076 9.07656 103.998 9.33533C103.706 10.2908 103.521 12.8387 103.443 16.9791C105.391 17.0587 107.476 17.0985 109.697 17.0985L115.161 16.9791V12.3212C115.161 9.61401 115.045 8.25047 114.811 8.23057C114.441 8.17085 113.778 8.14099 112.824 8.14099C112.765 8.00165 112.736 7.84241 112.736 7.66326C112.736 7.48411 112.765 7.33482 112.824 7.21538L115.834 7.30496C117.645 7.30496 119.029 7.22533 119.983 7.06609C120.061 7.24524 120.1 7.49406 120.1 7.81255C119.535 7.97179 119.097 8.20071 118.785 8.49929C118.474 8.79788 118.269 9.08651 118.172 9.36519C118.094 9.62396 118.035 9.97231 117.996 10.4102C117.762 12.5202 117.645 14.8691 117.645 17.4568V23.7868C117.645 26.494 117.762 27.8575 117.996 27.8774C118.366 27.9371 119.087 27.967 120.159 27.967C120.198 28.1063 120.217 28.2656 120.217 28.4447C120.217 28.6239 120.198 28.7732 120.159 28.8926L117.119 28.803C115.035 28.803 113.34 28.8826 112.035 29.0419C111.937 28.9225 111.888 28.7533 111.888 28.5343L111.918 28.2954C113.087 28.0168 113.837 27.7082 114.168 27.3698C114.519 27.0314 114.733 26.4741 114.811 25.6977C115.025 23.6674 115.142 21.1991 115.161 18.2929Z" fill="white"/>
<path d="M143.446 28.8926L140.027 28.803C138.546 28.803 137.251 28.8826 136.14 29.0419C136.023 28.8826 135.965 28.7134 135.965 28.5343L136.023 28.2954C136.783 28.1163 137.309 27.9172 137.601 27.6983C137.913 27.4594 138.069 27.2006 138.069 26.9219C138.069 26.6433 137.933 26.0859 137.66 25.2499L135.936 20.7711C134.884 20.7114 133.627 20.6815 132.166 20.6815L127.987 20.7711L127.256 22.682C126.282 25.1503 125.795 26.902 125.795 27.9371C126.243 27.957 126.925 27.967 127.841 27.967C127.88 28.1063 127.899 28.2656 127.899 28.4447C127.899 28.6239 127.88 28.7732 127.841 28.8926L124.743 28.803C123.516 28.803 122.444 28.8826 121.528 29.0419C121.411 28.9026 121.353 28.7334 121.353 28.5343L121.411 28.2954C122.405 28.0168 123.126 27.5788 123.574 26.9817C124.042 26.3845 124.733 25.0309 125.649 22.9209L132.867 6.2002H133.335L140.056 23.757C140.173 24.1352 140.475 24.8717 140.962 25.9665C141.469 27.0414 141.79 27.6784 141.927 27.8774C142.472 27.9371 142.979 27.967 143.446 27.967C143.505 28.1063 143.534 28.2656 143.534 28.4447C143.534 28.6239 143.505 28.7732 143.446 28.8926ZM128.425 19.6066L132.166 19.7261C133.51 19.7261 134.64 19.6962 135.556 19.6365L132.166 10.4998L128.425 19.6066Z" fill="white"/>
<path d="M171.912 28.8926L168.873 28.803C166.769 28.803 165.064 28.8826 163.759 29.0419C163.661 28.9225 163.613 28.7533 163.613 28.5343L163.642 28.2954C164.811 28.0168 165.551 27.7182 165.863 27.3997C166.175 27.0812 166.36 26.4044 166.418 25.3693C166.477 24.3342 166.506 23.2593 166.506 22.1446C166.506 21.01 166.447 19.2881 166.331 16.9791L166.097 12.0823C165.201 13.7743 163.798 16.6506 161.889 20.7114C159.999 24.7721 158.771 27.6684 158.206 29.4002H157.388C153.589 20.6218 151.154 15.2772 150.082 13.3662L148.855 11.2164C148.777 13.6847 148.738 16.7004 148.738 20.2635C148.738 23.8067 148.855 26.3447 149.089 27.8774C149.517 27.9371 150.277 27.967 151.368 27.967C151.426 28.1262 151.456 28.3054 151.456 28.5044C151.456 28.6836 151.426 28.813 151.368 28.8926L148.066 28.803C146.721 28.803 145.591 28.8826 144.676 29.0419C144.578 28.9225 144.53 28.7533 144.53 28.5343L144.559 28.2954C145.513 28.0765 146.147 27.758 146.458 27.34C146.79 26.9219 147.004 26.3745 147.101 25.6977C147.569 22.2939 147.842 16.9293 147.92 9.60406C147.394 8.92726 146.819 8.44953 146.195 8.17085C146.117 8.15095 145.572 8.07132 144.559 7.93198L144.471 7.51397C144.471 7.31491 144.5 7.15566 144.559 7.03623L149.235 6.9168C149.527 6.9168 150.024 7.4443 150.725 8.49929C151.446 9.55429 152.157 10.7287 152.858 12.0226C153.56 13.2965 154.368 14.9587 155.284 17.0089C156.219 19.0592 156.998 20.8308 157.622 22.3237C158.245 23.8167 158.596 24.6328 158.674 24.7721C158.927 24.1949 160.125 21.5972 162.268 16.9791C164.412 12.3411 165.824 9.11637 166.506 7.30496C168.474 7.30496 170.042 7.21538 171.211 7.03623C171.308 7.21538 171.357 7.4642 171.357 7.78269C170.383 8.00165 169.73 8.3301 169.399 8.76802C169.068 9.20594 168.883 9.67373 168.844 10.1714C168.805 10.669 168.785 11.6046 168.785 12.9781C168.785 14.3515 168.844 16.6805 168.961 19.9649C169.097 23.2494 169.302 25.8869 169.574 27.8774C169.945 27.9371 170.724 27.967 171.912 27.967C171.971 28.1063 172 28.2656 172 28.4447C172 28.6239 171.971 28.7732 171.912 28.8926Z" fill="white"/>
<path d="M36 18C36 27.9411 27.9411 36 18 36C8.05887 36 0 27.9411 0 18C0 8.05887 8.05887 0 18 0C27.9411 0 36 8.05887 36 18Z" fill="white"/>
<path d="M25.4867 27.9722C25.247 27.7227 24.9274 27.0711 24.5279 26.0175L24.5224 26.0019C24.3204 25.3698 24.1185 24.7376 23.9165 24.1054C23.4483 22.6406 22.98 21.1758 22.5128 19.7123C22.3053 19.0633 22.0978 18.4143 21.8903 17.7641C24.5379 17.5288 26.5641 18.2088 26.5641 18.2088L26.0026 15.9386L25.6997 15.9114C24.0641 15.7666 22.6249 15.8507 21.3588 16.0976C21.2168 15.6529 21.0748 15.2094 20.9327 14.7647C20.5543 13.5805 20.1771 12.3963 19.7976 11.2133C19.7243 10.9845 19.6233 10.7582 19.6 10.5113C19.5745 10.2385 19.6622 9.90627 19.893 9.78733C20.0972 9.68261 20.4112 9.53781 20.5532 9.52101V9H11.0769V9.77828C11.6417 9.86878 13.1897 10.1209 13.5891 10.2889C14.1229 10.4958 14.8353 10.8112 15.0428 11.4719C15.2569 12.1519 15.4733 12.8319 15.6908 13.512C15.9504 14.3251 16.2112 15.1396 16.4709 15.9528C16.6739 16.5889 16.8781 17.2249 17.0812 17.8623C13.3961 20.4079 12.5128 24.4506 12.5128 24.4506C13.9032 21.7421 15.6675 20.0795 17.4718 19.0827C17.7458 19.9386 18.0188 20.7944 18.2929 21.6516C18.5614 22.4919 18.83 23.3323 19.0985 24.1726C19.2916 24.7763 19.4846 25.3801 19.6777 25.9838C19.7554 26.2282 19.8342 26.4738 19.913 26.7195C19.9917 27.0646 20.0306 27.3064 20.0306 27.4421C20.0306 27.8507 19.9285 28.1079 19.7254 28.2127C19.5213 28.3174 19.2705 28.4622 19.1284 28.479V29H28V28.479C27.4352 28.3924 25.7264 28.2217 25.4867 27.9722Z" fill="#000084"/>
<path d="M10.9103 27.2731C10.9103 27.0394 11.0217 26.5221 11.1352 26.1223L14.1538 12.5857C14.1353 12.5244 14.1167 12.4618 14.0981 12.4005C13.9732 11.979 13.6523 11.7005 13.3076 11.5C12.1487 16.438 9.70177 26.9295 9.45203 27.5247C9.23634 28.0382 8.57586 28.4061 8 28.4853V29H12.4387V28.4853C11.9144 28.4316 11.5584 28.3511 11.3685 28.2426C11.063 28.0638 10.9103 27.7406 10.9103 27.2731Z" fill="#000084"/>
</svg>
