<svg width="28" height="28" viewBox="0 0 28 28" fill="none" xmlns="http://www.w3.org/2000/svg">
<rect width="28" height="28" fill="#E5E5E5"/>
<g clip-path="url(#clip0)">
<rect width="1440" height="5083" transform="translate(-738 -5001)" fill="white"/>
<rect x="-738" y="-162" width="1440" height="244" fill="#000084"/>
<path fill-rule="evenodd" clip-rule="evenodd" d="M7.625 1.25H20.3807C23.8982 1.25 26.75 4.10175 26.75 7.61933V20.3821C26.75 23.8982 23.8982 26.75 20.3807 26.75H7.61933C4.10175 26.75 1.25 23.8982 1.25 20.3807V7.625C1.25 4.10458 4.10458 1.25 7.625 1.25V1.25Z" stroke="white" stroke-width="1.5" stroke-linecap="round" stroke-linejoin="round"/>
<path d="M12.725 15.2749H20.375" stroke="white" stroke-width="1.5" stroke-linecap="round" stroke-linejoin="round"/>
<path d="M20.375 8.8999H19.0363C16.9594 8.8999 15.275 10.5843 15.275 12.6612V13.9999V26.7499" stroke="white" stroke-width="1.5" stroke-linecap="round" stroke-linejoin="round"/>
</g>
<defs>
<clipPath id="clip0">
<rect width="1440" height="5083" fill="white" transform="translate(-738 -5001)"/>
</clipPath>
</defs>
</svg>
