<svg width="26" height="26" viewBox="0 0 26 26" fill="none" xmlns="http://www.w3.org/2000/svg">
<rect width="26" height="26" fill="#E5E5E5"/>
<g clip-path="url(#clip0)">
<rect width="1440" height="5083" transform="translate(-439 -4893)" fill="white"/>
<rect x="-439" y="-54" width="1440" height="244" fill="#000084"/>
<path d="M11.3794 14.6205C9.72188 12.963 8.47238 11.1072 7.64221 9.22444C7.46654 8.82636 7.56996 8.36028 7.87738 8.05286L9.03763 6.89403C9.98821 5.94344 9.98821 4.59903 9.15804 3.76886L7.49488 2.10569C6.38846 0.999275 4.59496 0.999275 3.48854 2.10569L2.56488 3.02936C1.51513 4.07911 1.07738 5.59352 1.36071 7.09519C2.06054 10.7969 4.21104 14.85 7.68046 18.3194C11.1499 21.7889 15.203 23.9394 18.9047 24.6392C20.4064 24.9225 21.9208 24.4848 22.9705 23.435L23.8928 22.5128C24.9992 21.4064 24.9992 19.6129 23.8928 18.5064L22.231 16.8447C21.4009 16.0145 20.055 16.0145 19.2263 16.8447L17.947 18.1254C17.6396 18.4328 17.1735 18.5362 16.7755 18.3605C14.8927 17.5289 13.0369 16.278 11.3794 14.6205V14.6205Z" stroke="white" stroke-width="1.5" stroke-linecap="round" stroke-linejoin="round"/>
</g>
<defs>
<clipPath id="clip0">
<rect width="1440" height="5083" fill="white" transform="translate(-439 -4893)"/>
</clipPath>
</defs>
</svg>
