<svg width="28" height="36" viewBox="0 0 28 36" fill="none" xmlns="http://www.w3.org/2000/svg">
<rect width="28" height="36" fill="#E5E5E5"/>
<g clip-path="url(#clip0)">
<rect width="1440" height="1094" transform="translate(-143 -402)" fill="white"/>
<g filter="url(#filter0_dd)">
<path d="M-58 -106C-58 -111.523 -53.5228 -116 -48 -116H1202C1207.52 -116 1212 -111.523 1212 -106V348C1212 353.523 1207.52 358 1202 358H-48C-53.5229 358 -58 353.523 -58 348V-106Z" fill="white"/>
</g>
<rect x="-8" y="-86" width="1170" height="402" fill="white"/>
<path d="M14 19.8333C10.9622 19.8333 8.5 17.3712 8.5 14.3333C8.5 11.2955 10.9622 8.83334 14 8.83334C17.0378 8.83334 19.5 11.2955 19.5 14.3333C19.5 17.3712 17.0378 19.8333 14 19.8333Z" stroke="#000084" stroke-width="1.5" stroke-linecap="round" stroke-linejoin="round"/>
<path d="M14.0003 34.5C14.0003 34.5 1.16699 23.9583 1.16699 14.3333C1.16699 7.24567 6.91266 1.5 14.0003 1.5C21.088 1.5 26.8337 7.24567 26.8337 14.3333C26.8337 23.9583 14.0003 34.5 14.0003 34.5Z" stroke="#000084" stroke-width="1.5" stroke-linecap="round" stroke-linejoin="round"/>
</g>
<defs>
<filter id="filter0_dd" x="-78" y="-126" width="1310" height="514" filterUnits="userSpaceOnUse" color-interpolation-filters="sRGB">
<feFlood flood-opacity="0" result="BackgroundImageFix"/>
<feColorMatrix in="SourceAlpha" type="matrix" values="0 0 0 0 0 0 0 0 0 0 0 0 0 0 0 0 0 0 127 0"/>
<feOffset dy="10"/>
<feGaussianBlur stdDeviation="10"/>
<feColorMatrix type="matrix" values="0 0 0 0 0 0 0 0 0 0 0 0 0 0 0 0 0 0 0.1 0"/>
<feBlend mode="normal" in2="BackgroundImageFix" result="effect1_dropShadow"/>
<feColorMatrix in="SourceAlpha" type="matrix" values="0 0 0 0 0 0 0 0 0 0 0 0 0 0 0 0 0 0 127 0"/>
<feOffset dy="1"/>
<feGaussianBlur stdDeviation="1.5"/>
<feColorMatrix type="matrix" values="0 0 0 0 0 0 0 0 0 0 0 0 0 0 0 0 0 0 0.03 0"/>
<feBlend mode="normal" in2="effect1_dropShadow" result="effect2_dropShadow"/>
<feBlend mode="normal" in="SourceGraphic" in2="effect2_dropShadow" result="shape"/>
</filter>
<clipPath id="clip0">
<rect width="1440" height="1094" fill="white" transform="translate(-143 -402)"/>
</clipPath>
</defs>
</svg>
