<svg width="36" height="28" viewBox="0 0 36 28" fill="none" xmlns="http://www.w3.org/2000/svg">
<rect width="36" height="28" fill="#E5E5E5"/>
<g clip-path="url(#clip0)">
<rect width="1440" height="1094" transform="translate(-139 -534)" fill="white"/>
<g filter="url(#filter0_dd)">
<path d="M-54 -238C-54 -243.523 -49.5228 -248 -44 -248H1206C1211.52 -248 1216 -243.523 1216 -238V216C1216 221.523 1211.52 226 1206 226H-44C-49.5229 226 -54 221.523 -54 216V-238Z" fill="white"/>
</g>
<rect x="-4" y="-218" width="1170" height="402" fill="white"/>
<path d="M4.49933 1.24915H31.4988C33.1562 1.24915 34.5 2.59298 34.5 4.25031V23.7496C34.5 25.407 33.1562 26.749 31.5007 26.749H4.49933C2.84383 26.7508 1.5 25.407 1.5 23.7496V4.25031C1.5 2.59298 2.84383 1.24915 4.49933 1.24915V1.24915Z" stroke="#000084" stroke-width="1.5" stroke-linecap="round" stroke-linejoin="round"/>
<path d="M1.71875 3.13748L15.8244 13.2263C17.0986 14.1375 18.8109 14.1393 20.0869 13.23L34.2732 3.11182" stroke="#000084" stroke-width="1.5" stroke-linecap="round" stroke-linejoin="round"/>
</g>
<defs>
<filter id="filter0_dd" x="-74" y="-258" width="1310" height="514" filterUnits="userSpaceOnUse" color-interpolation-filters="sRGB">
<feFlood flood-opacity="0" result="BackgroundImageFix"/>
<feColorMatrix in="SourceAlpha" type="matrix" values="0 0 0 0 0 0 0 0 0 0 0 0 0 0 0 0 0 0 127 0"/>
<feOffset dy="10"/>
<feGaussianBlur stdDeviation="10"/>
<feColorMatrix type="matrix" values="0 0 0 0 0 0 0 0 0 0 0 0 0 0 0 0 0 0 0.1 0"/>
<feBlend mode="normal" in2="BackgroundImageFix" result="effect1_dropShadow"/>
<feColorMatrix in="SourceAlpha" type="matrix" values="0 0 0 0 0 0 0 0 0 0 0 0 0 0 0 0 0 0 127 0"/>
<feOffset dy="1"/>
<feGaussianBlur stdDeviation="1.5"/>
<feColorMatrix type="matrix" values="0 0 0 0 0 0 0 0 0 0 0 0 0 0 0 0 0 0 0.03 0"/>
<feBlend mode="normal" in2="effect1_dropShadow" result="effect2_dropShadow"/>
<feBlend mode="normal" in="SourceGraphic" in2="effect2_dropShadow" result="shape"/>
</filter>
<clipPath id="clip0">
<rect width="1440" height="1094" fill="white" transform="translate(-139 -534)"/>
</clipPath>
</defs>
</svg>
