<svg width="32" height="32" viewBox="0 0 32 32" fill="none" xmlns="http://www.w3.org/2000/svg">
<path d="M13.9026 18.0973C11.7576 15.9523 10.1406 13.5507 9.06628 11.1142C8.83894 10.599 8.97278 9.99583 9.37061 9.598L10.8721 8.09833C12.1023 6.86816 12.1023 5.12833 11.0279 4.054L8.87561 1.90166C7.44378 0.469831 5.12278 0.469831 3.69094 1.90166L2.49561 3.097C1.13711 4.4555 0.570608 6.41533 0.937275 8.35866C1.84294 13.1492 4.62594 18.3943 9.11578 22.8842C13.6056 27.374 18.8508 30.157 23.6413 31.0627C25.5846 31.4293 27.5444 30.8628 28.9029 29.5043L30.0964 28.3108C31.5283 26.879 31.5283 24.558 30.0964 23.1262L27.9459 20.9757C26.8716 19.9013 25.1299 19.9013 24.0574 20.9757L22.4019 22.633C22.0041 23.0308 21.4009 23.1647 20.8858 22.9373C18.4493 21.8612 16.0476 20.2423 13.9026 18.0973V18.0973Z" stroke="#000084" stroke-width="1.5" stroke-linecap="round" stroke-linejoin="round"/>
</svg>
